<svg xmlns="http://www.w3.org/2000/svg" width="44" height="44" viewBox="0 0 44 44" fill="none" style="width: 100%; height: 100%;">
    <rect x="3" y="3" width="38" height="38" rx="8" fill="white"/>
    <rect x="6" y="6" width="32" height="32" rx="5" fill="#800000"/>
    <path opacity="0.6" d="M10 33.2164V10.8761C10 10.438 10.4384 10 10.8767 10H33.1233C33.6712 10 34 10.438 34 10.8761V33.1069C34 33.6544 33.5616 33.983 33.1233 33.983H10.9997C10.918 33.983 10.8367 33.9974 10.755 33.9998C10.3608 34.0112 10 33.6138 10 33.2164Z" fill="#FF3333"/>
    <circle cx="15" cy="20" r="6" fill="white" fill-opacity="0.8"/>
    <circle cx="29" cy="20" r="6" fill="black" fill-opacity="0.3"/>
    <path d="M22 14C25.3137 14 28 16.6863 28 20C28 23.3137 25.3137 26 22 26V14Z" fill="#800000"/>
</svg>