<svg xmlns="http://www.w3.org/2000/svg" width="44" height="44" viewBox="0 0 44 44" fill="none" style="width: 100%; height: 100%;">
    <rect x="3" y="3" width="38" height="38" rx="8" fill="white"/>
    <rect x="6" y="6" width="32" height="32" rx="5" fill="#663300"/>
    <path opacity="0.6" d="M10 33.2164V10.8761C10 10.438 10.4384 10 10.8767 10H33.1233C33.6712 10 34 10.438 34 10.8761V33.1069C34 33.6544 33.5616 33.983 33.1233 33.983H10.9997C10.918 33.983 10.8367 33.9974 10.755 33.9998C10.3608 34.0112 10 33.6138 10 33.2164Z" fill="#996633"/>
    <rect x="13" y="13" width="18" height="4" rx="1" fill="white"/>
    <rect x="13" y="20" width="18" height="4" rx="1" fill="white" fill-opacity="0.7"/>
    <rect x="13" y="27" width="18" height="4" rx="1" fill="white" fill-opacity="0.5"/>
    <circle cx="28" cy="15" r="2" fill="#996633"/>
    <circle cx="28" cy="22" r="2" fill="#996633" fill-opacity="0.7"/>
    <circle cx="28" cy="29" r="2" fill="#996633" fill-opacity="0.5"/>
</svg>