<svg xmlns="http://www.w3.org/2000/svg" width="44" height="44" viewBox="0 0 44 44" fill="none" style="width: 100%; height: 100%;">
    <rect x="3" y="3" width="38" height="38" rx="8" fill="white"/>
    <rect x="6" y="6" width="32" height="32" rx="5" fill="#006600"/>
    <path opacity="0.6" d="M10 33.2164V10.8761C10 10.438 10.4384 10 10.8767 10H33.1233C33.6712 10 34 10.438 34 10.8761V33.1069C34 33.6544 33.5616 33.983 33.1233 33.983H10.9997C10.918 33.983 10.8367 33.9974 10.755 33.9998C10.3608 34.0112 10 33.6138 10 33.2164Z" fill="#009900"/>
    <rect x="13" y="13" width="18" height="16" rx="2" fill="white"/>
    <rect x="16" y="16" width="3" height="3" rx="1" fill="#006600"/>
    <rect x="21" y="16" width="3" height="3" rx="1" fill="#006600"/>
    <rect x="26" y="16" width="3" height="3" rx="1" fill="#006600"/>
    <rect x="16" y="21" width="3" height="3" rx="1" fill="#006600"/>
    <rect x="21" y="21" width="3" height="3" rx="1" fill="#006600"/>
    <rect x="26" y="21" width="3" height="3" rx="1" fill="#006600"/>
    <rect x="16" y="26" width="10" height="3" rx="1" fill="#006600"/>
</svg>