<svg xmlns="http://www.w3.org/2000/svg" width="44" height="44" viewBox="0 0 44 44" fill="none" style="width: 100%; height: 100%;">
    <rect x="3" y="3" width="38" height="38" rx="8" fill="white"/>
    <rect x="6" y="6" width="32" height="32" rx="5" fill="#003366"/>
    <path opacity="0.6" d="M10 33.2164V10.8761C10 10.438 10.4384 10 10.8767 10H33.1233C33.6712 10 34 10.438 34 10.8761V33.1069C34 33.6544 33.5616 33.983 33.1233 33.983H10.9997C10.918 33.983 10.8367 33.9974 10.755 33.9998C10.3608 34.0112 10 33.6138 10 33.2164Z" fill="#336699"/>
    <path d="M14 14H30V18H14V14Z" fill="white"/>
    <path d="M14 22H26V26H14V22Z" fill="white" fill-opacity="0.7"/>
    <path d="M14 30H22V34H14V30Z" fill="white" fill-opacity="0.5"/>
    <path d="M18 18V30" stroke="white" stroke-width="2"/>
    <path d="M22 14V22" stroke="white" stroke-width="2" stroke-opacity="0.7"/>
    <path d="M26 14V18" stroke="white" stroke-width="2" stroke-opacity="0.5"/>
</svg>
