<svg xmlns="http://www.w3.org/2000/svg" width="44" height="44" viewBox="0 0 44 44" fill="none" role="img" aria-label="Missing alternative text for image" style="width: 100%; height: 100%;">
  <title>Missing alternative text for image</title>
  <rect x="3" y="3" width="38" height="38" rx="8" fill="white" />
  <rect x="6" y="6" width="32" height="32" rx="5" fill="#CC0000" />
  <path opacity="0.6" d="M10 33.2164V10.8761C10 10.438 10.4384 10 10.8767 10H33.1233C33.6712 10 34 10.438 34 10.8761V33.1069C34 33.6544 33.5616 33.983 33.1233 33.983H10.9997C10.918 33.983 10.8367 33.9974 10.755 33.9998C10.3608 34.0112 10 33.6138 10 33.2164Z" fill="#FF6666" />
  <path d="M22 14C21.1716 14 20.5 14.6716 20.5 15.5C20.5 16.3284 21.1716 17 22 17C22.8284 17 23.5 16.3284 23.5 15.5C23.5 14.6716 22.8284 14 22 14Z" fill="white" />
  <rect x="21" y="19" width="2" height="10" rx="1" fill="white" />
</svg>